<?xml version="1.0" encoding="utf-8"?>
<!-- Generator: Adobe Illustrator 27.5.0, SVG Export Plug-In . SVG Version: 6.00 Build 0)  -->
<svg version="1.1" xmlns="http://www.w3.org/2000/svg" xmlns:xlink="http://www.w3.org/1999/xlink" x="0px" y="0px"
	 viewBox="0 0 500 500" style="enable-background:new 0 0 500 500;" xml:space="preserve">
<g id="Background_Complete">
	<g>
		<g>
			<path style="fill:#E0E0E0;" d="M349.913,245.347c4.704-2.842,9.711-4.998,14.875-6.465l3.064-14.725l24.878-0.436l3.58,14.606
				c5.213,1.285,10.294,3.262,15.095,5.938l12.573-8.242l17.9,17.283l-7.793,12.852c2.843,4.705,4.998,9.714,6.464,14.879
				l14.723,3.064l0.437,24.877l-14.607,3.581c-1.285,5.212-3.263,10.292-5.938,15.093l8.24,12.574l-17.281,17.9l-12.854-7.794
				c-4.704,2.843-9.713,4.997-14.878,6.464l-3.065,14.724l-24.877,0.436l-3.581-14.607c-5.213-1.285-10.293-3.263-15.094-5.938
				l-12.573,8.242l-17.9-17.283l7.793-12.853c-2.843-4.705-4.999-9.712-6.465-14.878l-14.724-3.064l-0.436-24.877l14.607-3.582
				c1.285-5.212,3.264-10.292,5.938-15.093l-8.241-12.574l17.281-17.9L349.913,245.347L349.913,245.347z M363.174,278.487
				c-10.239,10.606-9.943,27.503,0.663,37.742c10.605,10.239,27.503,9.942,37.741-0.664c10.238-10.605,9.943-27.503-0.663-37.741
				C390.31,267.585,373.413,267.882,363.174,278.487z"/>
		</g>
	</g>
	<g>
		<g>
			<path style="fill:#E0E0E0;" d="M409.82,380.481c1.935-1.169,3.995-2.056,6.12-2.66l1.261-6.058l10.236-0.179l1.473,6.009
				c2.145,0.529,4.235,1.342,6.211,2.443l5.173-3.391l7.365,7.111l-3.206,5.288c1.17,1.936,2.056,3.997,2.66,6.122l6.057,1.261
				l0.18,10.235l-6.01,1.473c-0.529,2.145-1.342,4.234-2.443,6.21l3.39,5.173l-7.11,7.365l-5.289-3.207
				c-1.936,1.17-3.996,2.056-6.121,2.66l-1.261,6.058l-10.235,0.18l-1.473-6.01c-2.145-0.529-4.235-1.343-6.21-2.443l-5.173,3.391
				l-7.365-7.111l3.206-5.288c-1.17-1.936-2.057-3.996-2.66-6.121l-6.058-1.261l-0.18-10.235l6.01-1.474
				c0.529-2.144,1.343-4.234,2.443-6.21l-3.39-5.173l7.11-7.365L409.82,380.481L409.82,380.481z M415.277,394.116
				c-4.213,4.364-4.091,11.316,0.273,15.528c4.363,4.213,11.316,4.09,15.528-0.273c4.212-4.363,4.091-11.316-0.273-15.528
				C426.441,389.631,419.489,389.753,415.277,394.116z"/>
		</g>
	</g>
	<g>
		<g>
			<path style="fill:#E0E0E0;" d="M36.644,259.592c2.368-1.431,4.888-2.516,7.488-3.254l1.542-7.412l12.523-0.22L60,256.059
				c2.624,0.647,5.182,1.642,7.598,2.989l6.329-4.149l9.01,8.7l-3.923,6.47c1.431,2.368,2.516,4.89,3.254,7.49l7.411,1.542
				l0.22,12.523l-7.353,1.803c-0.647,2.624-1.642,5.181-2.989,7.598l4.148,6.33l-8.699,9.011l-6.47-3.923
				c-2.368,1.431-4.889,2.516-7.489,3.254l-1.543,7.412l-12.522,0.22l-1.802-7.353c-2.624-0.647-5.181-1.643-7.598-2.989
				l-6.329,4.149l-9.011-8.7l3.923-6.47c-1.431-2.368-2.516-4.889-3.255-7.489l-7.412-1.542l-0.22-12.523l7.353-1.803
				c0.647-2.624,1.643-5.181,2.989-7.598l-4.148-6.329l8.699-9.011L36.644,259.592L36.644,259.592z M43.32,276.274
				c-5.154,5.339-5.005,13.844,0.334,18.999c5.338,5.154,13.844,5.004,18.998-0.334c5.154-5.339,5.005-13.845-0.334-18.998
				C56.979,270.787,48.474,270.936,43.32,276.274z"/>
		</g>
	</g>
	<g>
		<g>
			<path style="fill:#E0E0E0;" d="M436.32,187.204c1.623-0.981,3.35-1.724,5.132-2.231l1.057-5.08l8.584-0.15l1.235,5.04
				c1.799,0.443,3.552,1.126,5.208,2.049l4.338-2.844l6.176,5.963l-2.689,4.435c0.981,1.623,1.725,3.352,2.23,5.134l5.08,1.057
				l0.151,8.583l-5.04,1.236c-0.443,1.798-1.126,3.551-2.049,5.208l2.843,4.338l-5.963,6.176l-4.435-2.689
				c-1.623,0.981-3.351,1.724-5.133,2.23l-1.057,5.08l-8.583,0.151l-1.236-5.04c-1.799-0.443-3.551-1.126-5.208-2.049l-4.338,2.844
				l-6.176-5.963l2.689-4.435c-0.981-1.623-1.725-3.351-2.231-5.133l-5.08-1.057l-0.151-8.583l5.04-1.236
				c0.443-1.798,1.126-3.551,2.049-5.208l-2.843-4.338l5.963-6.176L436.32,187.204L436.32,187.204z M440.895,198.639
				c-3.533,3.659-3.431,9.489,0.229,13.022c3.659,3.533,9.489,3.43,13.022-0.229c3.533-3.659,3.431-9.489-0.229-13.022
				C450.258,194.878,444.428,194.98,440.895,198.639z"/>
		</g>
	</g>
	<g>
		<g>
			<path style="fill:#E0E0E0;" d="M148.995,80.762c4.131-2.497,8.53-4.39,13.066-5.679l2.691-12.934l21.852-0.383l3.145,12.83
				c4.579,1.128,9.042,2.866,13.259,5.216l11.044-7.239l15.722,15.181l-6.845,11.289c2.497,4.133,4.39,8.533,5.678,13.069
				l12.932,2.691l0.384,21.851l-12.83,3.145c-1.128,4.578-2.866,9.04-5.216,13.257l7.238,11.045l-15.179,15.723l-11.29-6.846
				c-4.132,2.497-8.531,4.389-13.068,5.678l-2.692,12.934l-21.851,0.383l-3.145-12.831c-4.579-1.129-9.04-2.866-13.258-5.216
				l-11.044,7.239l-15.723-15.18l6.845-11.29c-2.497-4.133-4.391-8.531-5.679-13.068l-12.933-2.691l-0.383-21.851l12.83-3.146
				c1.128-4.578,2.867-9.04,5.216-13.257l-7.238-11.044l15.179-15.723L148.995,80.762L148.995,80.762z M160.643,109.872
				c-8.994,9.316-8.733,24.157,0.583,33.151c9.315,8.993,24.157,8.732,33.15-0.583c8.993-9.315,8.733-24.157-0.583-33.151
				C184.478,100.296,169.637,100.557,160.643,109.872z"/>
		</g>
	</g>
</g>
<g id="Background_Simple" style="display:none;">
	<path style="display:inline;fill:#F5F5F5;" d="M474.153,231.622l-1.462-1.753c-12.328-14.778-31.657-21.89-50.296-17.86
		c-2.396,0.518-4.755,1.209-7.055,2.077c-16.557,6.245-29.491,21.431-33.161,38.933c-2.158,10.293-1.478,21.667-7.198,30.442
		c-7.443,11.42-22.613,14.034-36.055,15.636c-13.442,1.603-28.615,4.257-36.009,15.71c-4.631,7.173-5.047,16.443-3.317,24.852
		c4.58,22.263,23.248,39.97,44.643,46.942c21.394,6.972,44.946,4.331,66.05-3.343c29.565-10.75,56.015-32.008,69.51-60.711
		C493.297,293.844,492.347,257.657,474.153,231.622z"/>
	<path style="display:inline;fill:#F5F5F5;" d="M362.571,53.243l-0.937,0.931c-7.9,7.846-11.205,19.827-8.235,31.162
		c0.382,1.457,0.86,2.888,1.436,4.279c4.146,10.015,13.213,17.632,23.247,19.529c5.901,1.115,12.308,0.471,17.482,3.798
		c6.734,4.33,8.775,13.568,10.179,21.768c1.405,8.2,3.468,17.44,10.22,21.739c4.228,2.692,9.486,2.762,14.177,1.533
		c12.42-3.251,21.741-15.04,24.891-28.282c3.15-13.243,0.783-27.614-4.34-40.386c-7.175-17.892-20.177-33.665-36.91-41.354
		S376.62,41.578,362.571,53.243z"/>
	<path style="display:inline;fill:#F5F5F5;" d="M55.925,315.168l1.137-0.174c9.585-1.467,18.058-8.2,21.784-17.7
		c0.479-1.221,0.877-2.473,1.186-3.747c2.222-9.174-0.249-19.186-6.335-25.67c-3.579-3.813-8.418-6.647-10.351-11.643
		c-2.516-6.502,0.789-14.049,4.008-20.54c3.22-6.49,6.509-14.051,3.965-20.54c-1.593-4.064-5.257-6.811-9.188-8.354
		c-10.407-4.085-23.014-0.574-32.026,7.127c-9.012,7.701-14.721,19.028-17.671,30.642c-4.132,16.27-3.078,34.041,4.749,48.037
		C25.01,306.603,40.055,316.166,55.925,315.168z"/>
	<circle style="display:inline;fill:#F5F5F5;" cx="176.819" cy="90.34" r="41.523"/>
</g>
<g id="Desk">
	<g>
		<path style="fill:#263238;" d="M460.137,467.774c0,0,0.414-0.019,1.24-0.028c0.838-0.006,2.075-0.015,3.72-0.027v0.109
			c-20.818,0.118-108.118,0.206-212.607,0.206c-60.09-0.03-114.483-0.057-153.865-0.076c-19.68-0.035-35.607-0.063-46.627-0.083
			c-5.497-0.021-9.768-0.038-12.677-0.049c-1.441-0.011-2.543-0.02-3.297-0.026c-0.743-0.009-1.123-0.027-1.123-0.027
			s0.381-0.018,1.123-0.027c0.754-0.006,1.855-0.014,3.297-0.026c2.909-0.011,7.18-0.028,12.677-0.049
			c11.02-0.02,26.947-0.048,46.627-0.083c39.382-0.02,93.775-0.047,153.865-0.076c104.489,0,191.789,0.088,212.607,0.206v0.109
			c-1.645-0.012-2.882-0.021-3.72-0.027C460.551,467.793,460.137,467.774,460.137,467.774z"/>
	</g>
</g>
<g id="Speech_Bubble">
	<g>
		<g>
			<g>
				
					<ellipse transform="matrix(0.163 -0.9866 0.9866 0.163 -65.844 200.6952)" style="fill:#FFFFFF;" cx="85.368" cy="139.156" rx="50.698" ry="50.699"/>
				<g>
					<path style="fill:#263238;" d="M136.067,139.156c-0.017,0-0.048-0.278-0.093-0.82c-0.042-0.588-0.099-1.385-0.171-2.405
						c-0.034-0.533-0.072-1.123-0.113-1.77c-0.071-0.648-0.212-1.35-0.329-2.114c-0.246-1.527-0.48-3.297-1.068-5.222
						c-0.901-3.908-2.74-8.524-5.632-13.415c-2.915-4.87-7.116-9.956-12.832-14.271c-5.697-4.274-12.884-7.908-21.179-9.374
						c-8.238-1.414-17.537-1.156-26.392,2.209c-2.253,0.722-4.372,1.837-6.549,2.882c-2.063,1.247-4.236,2.397-6.156,3.959
						c-2.041,1.402-3.826,3.155-5.695,4.843c-1.688,1.87-3.463,3.699-4.919,5.821c-2.988,4.15-5.597,8.761-7.175,13.831
						c-1.636,5.039-2.517,10.391-2.59,15.838c0.072,5.448,0.951,10.802,2.587,15.843c1.578,5.072,4.187,9.684,7.175,13.836
						c1.456,2.122,3.23,3.953,4.919,5.823c1.869,1.689,3.654,3.443,5.696,4.845c1.92,1.562,4.094,2.712,6.157,3.96
						c2.178,1.045,4.297,2.16,6.55,2.882c8.857,3.366,18.157,3.623,26.395,2.209c8.295-1.467,15.482-5.102,21.179-9.376
						c5.715-4.315,9.916-9.401,12.83-14.271c2.891-4.891,4.73-9.506,5.631-13.414c0.588-1.924,0.822-3.695,1.068-5.221
						c0.117-0.764,0.258-1.466,0.329-2.114c0.042-0.647,0.079-1.237,0.113-1.77c0.073-1.019,0.129-1.816,0.171-2.404
						C136.018,139.434,136.049,139.156,136.067,139.156c0.017,0,0.02,0.278,0.01,0.822c-0.018,0.59-0.041,1.391-0.072,2.415
						c-0.02,0.536-0.042,1.13-0.066,1.782c-0.055,0.653-0.181,1.361-0.283,2.131c-0.217,1.54-0.422,3.328-0.985,5.275
						c-0.85,3.952-2.65,8.633-5.528,13.606c-2.902,4.951-7.115,10.136-12.882,14.548c-5.749,4.371-13.03,8.102-21.456,9.63
						c-8.368,1.475-17.831,1.245-26.863-2.157c-2.297-0.731-4.459-1.859-6.68-2.921c-2.106-1.264-4.322-2.435-6.283-4.021
						c-2.082-1.426-3.906-3.208-5.813-4.928c-1.726-1.901-3.536-3.767-5.024-5.928c-3.052-4.228-5.716-8.931-7.33-14.103
						c-1.673-5.141-2.571-10.603-2.643-16.158c0.072-5.554,0.973-11.014,2.646-16.153c1.615-5.17,4.278-9.872,7.33-14.098
						c1.488-2.16,3.298-4.025,5.023-5.926c1.906-1.719,3.73-3.501,5.812-4.927c1.961-1.585,4.176-2.756,6.282-4.02
						c2.22-1.062,4.382-2.189,6.679-2.92c9.031-3.402,18.492-3.633,26.86-2.158c8.426,1.527,15.708,5.257,21.457,9.628
						c5.768,4.412,9.981,9.596,12.883,14.548c2.879,4.973,4.679,9.654,5.529,13.607c0.563,1.947,0.769,3.735,0.985,5.276
						c0.102,0.771,0.227,1.479,0.283,2.132c0.024,0.652,0.046,1.245,0.066,1.782c0.031,1.024,0.055,1.825,0.072,2.416
						C136.087,138.878,136.084,139.156,136.067,139.156z"/>
				</g>
			</g>
			<g>
				<path style="fill:#FFFFFF;" d="M144.854,180.669c0,3.913-3.172,7.085-7.084,7.085c-3.913,0-7.085-3.172-7.085-7.085
					c0-3.913,3.172-7.084,7.085-7.084C141.682,173.584,144.854,176.756,144.854,180.669z"/>
				<g>
					<path style="fill:#263238;" d="M144.854,180.669c-0.091,0.003-0.097-0.63-0.411-1.682c-0.31-1.033-1.04-2.53-2.602-3.667
						c-1.51-1.142-3.966-1.763-6.327-0.87c-2.342,0.821-4.353,3.314-4.327,6.218c-0.027,2.906,1.985,5.399,4.327,6.22
						c2.361,0.893,4.817,0.271,6.327-0.87c1.562-1.138,2.292-2.635,2.602-3.667C144.757,181.299,144.763,180.666,144.854,180.669
						c0.046-0.004,0.178,0.634-0.032,1.777c-0.209,1.118-0.883,2.8-2.551,4.136c-1.609,1.337-4.359,2.142-7.072,1.175
						c-2.689-0.88-5.048-3.736-5.015-7.089c-0.031-3.352,2.326-6.208,5.015-7.087c2.714-0.967,5.463-0.162,7.072,1.175
						c1.667,1.336,2.342,3.017,2.551,4.136C145.032,180.035,144.9,180.673,144.854,180.669z"/>
				</g>
			</g>
		</g>
		<g>
			<circle style="fill:#263238;" cx="67.42" cy="139.824" r="4.532"/>
			<circle style="fill:#263238;" cx="85.368" cy="139.824" r="4.532"/>
			<circle style="fill:#263238;" cx="103.317" cy="139.824" r="4.532"/>
		</g>
	</g>
</g>
<g id="Gears">
	<g>
		<g>
			<g>
				<path style="fill:#F5F5F5;" d="M101.863,215.414c2.002-1.21,4.133-2.127,6.331-2.751l1.304-6.267l10.588-0.186l1.524,6.216
					c2.219,0.547,4.381,1.388,6.424,2.527l5.351-3.508l7.618,7.356l-3.317,5.47c1.21,2.003,2.127,4.134,2.751,6.333l6.266,1.304
					l0.186,10.588l-6.216,1.524c-0.547,2.218-1.389,4.38-2.527,6.424l3.507,5.352l-7.355,7.618l-5.47-3.317
					c-2.002,1.21-4.134,2.127-6.332,2.751l-1.304,6.267l-10.587,0.186l-1.524-6.217c-2.219-0.547-4.38-1.389-6.424-2.527
					l-5.351,3.508l-7.618-7.355l3.317-5.47c-1.21-2.002-2.128-4.133-2.752-6.332l-6.266-1.304L83.8,233.014l6.217-1.524
					c0.547-2.218,1.389-4.38,2.527-6.424l-3.507-5.351l7.355-7.618L101.863,215.414L101.863,215.414z M107.507,229.518
					c-4.358,4.514-4.231,11.705,0.282,16.063c4.514,4.358,11.705,4.231,16.062-0.283c4.357-4.514,4.231-11.705-0.282-16.063
					C119.056,224.879,111.865,225.005,107.507,229.518z"/>
				<g>
					<path style="fill:none;" d="M101.863,215.414c2.002-1.21,4.133-2.127,6.331-2.751l1.304-6.267l10.588-0.186l1.524,6.216
						c2.219,0.547,4.381,1.388,6.424,2.527l5.351-3.508l7.618,7.356l-3.317,5.47c1.21,2.003,2.127,4.134,2.751,6.333l6.266,1.304
						l0.186,10.588l-6.216,1.524c-0.547,2.218-1.389,4.38-2.527,6.424l3.507,5.352l-7.355,7.618l-5.47-3.317
						c-2.002,1.21-4.134,2.127-6.332,2.751l-1.304,6.267l-10.587,0.186l-1.524-6.217c-2.219-0.547-4.38-1.389-6.424-2.527
						l-5.351,3.508l-7.618-7.355l3.317-5.47c-1.21-2.002-2.128-4.133-2.752-6.332l-6.266-1.304L83.8,233.014l6.217-1.524
						c0.547-2.218,1.389-4.38,2.527-6.424l-3.507-5.351l7.355-7.618L101.863,215.414L101.863,215.414z M107.507,229.518
						c-4.358,4.514-4.231,11.705,0.282,16.063c4.514,4.358,11.705,4.231,16.062-0.283c4.357-4.514,4.231-11.705-0.282-16.063
						C119.056,224.879,111.865,225.005,107.507,229.518z"/>
					<g>
						<path style="fill:#263238;" d="M107.507,229.518c0,0,0.607-0.825,2.129-1.835c1.494-0.986,4.097-2.082,7.392-1.728
							c1.622,0.185,3.396,0.717,5.012,1.789c1.599,1.071,3.108,2.595,4.049,4.571c0.496,0.97,0.84,2.048,1.026,3.172
							c0.202,1.123,0.231,2.303,0.062,3.478c-0.287,2.36-1.403,4.685-3.137,6.512c-1.765,1.798-4.05,2.996-6.399,3.366
							c-1.169,0.211-2.35,0.223-3.479,0.061c-1.131-0.147-2.22-0.452-3.207-0.914c-2.008-0.871-3.583-2.327-4.71-3.886
							c-1.128-1.578-1.722-3.332-1.964-4.947c-0.469-3.281,0.535-5.921,1.468-7.448
							C106.704,230.154,107.507,229.518,107.507,229.518c0.055,0.046-0.699,0.733-1.583,2.292c-0.864,1.532-1.781,4.123-1.279,7.291
							c0.257,1.56,0.85,3.245,1.951,4.752c1.1,1.49,2.625,2.877,4.554,3.699c0.948,0.437,1.993,0.724,3.076,0.859
							c1.082,0.152,2.212,0.135,3.328-0.07c2.246-0.36,4.422-1.507,6.11-3.225c1.656-1.748,2.725-3.962,3.006-6.219
							c0.166-1.123,0.143-2.253-0.047-3.328c-0.173-1.077-0.496-2.111-0.966-3.044c-0.889-1.899-2.328-3.374-3.856-4.421
							c-1.545-1.048-3.249-1.581-4.818-1.783c-3.184-0.39-5.742,0.617-7.242,1.534C108.216,228.794,107.555,229.572,107.507,229.518
							z"/>
					</g>
					<g>
						<path style="fill:#263238;" d="M101.863,215.414c0,0-0.118-0.057-0.353-0.192c-0.25-0.146-0.596-0.348-1.048-0.612
							c-0.946-0.561-2.322-1.379-4.114-2.443l0.103-0.013c-1.87,1.955-4.336,4.533-7.319,7.652l0.015-0.164
							c1.068,1.617,2.255,3.415,3.524,5.34l0.051,0.077l-0.045,0.081c-1.043,1.886-1.919,4.033-2.494,6.39l-0.024,0.1l-0.101,0.025
							c-1.936,0.479-4.033,0.999-6.213,1.538l0.141-0.183c0.065,3.334,0.133,6.872,0.205,10.587l-0.163-0.197
							c1.94,0.401,4.077,0.842,6.268,1.294l0.128,0.026l0.036,0.126c0.582,2.048,1.493,4.227,2.737,6.274l0.071,0.116l-0.071,0.117
							c-1.026,1.697-2.158,3.568-3.31,5.474l-0.037-0.287c2.395,2.308,4.978,4.797,7.625,7.348l-0.301-0.028
							c1.666-1.094,3.495-2.295,5.348-3.512l0.125-0.082l0.131,0.073c1.872,1.044,4.059,1.935,6.363,2.499l0.148,0.036l0.036,0.148
							c0.478,1.947,1,4.071,1.527,6.216l-0.252-0.194c3.352-0.06,6.945-0.124,10.587-0.189l-0.249,0.206
							c0.412-1.979,0.856-4.115,1.303-6.267l0.032-0.154l0.151-0.043c2.09-0.591,4.255-1.505,6.262-2.721l0.006-0.003l0.136-0.081
							l0.134,0.081c1.835,1.113,3.659,2.219,5.47,3.317l-0.322,0.042c2.484-2.572,4.938-5.112,7.356-7.617l-0.03,0.32
							c-1.18-1.802-2.348-3.586-3.505-5.353l-0.085-0.13l0.075-0.135c1.127-2.02,1.965-4.168,2.506-6.359l0.037-0.148l0.148-0.036
							c2.103-0.514,4.173-1.02,6.217-1.52l-0.189,0.245c-0.061-3.615-0.12-7.145-0.177-10.588l0.191,0.23
							c-2.126-0.445-4.213-0.881-6.264-1.31l-0.139-0.029l-0.038-0.136c-0.636-2.25-1.565-4.363-2.719-6.28l-0.071-0.117
							l0.071-0.116c1.14-1.874,2.245-3.691,3.324-5.465l0.035,0.268c-2.676-2.592-5.202-5.039-7.606-7.368l0.248,0.023
							c-1.884,1.23-3.652,2.384-5.358,3.497l-0.095,0.062l-0.098-0.055c-2.137-1.194-4.279-2.001-6.374-2.524l-0.101-0.025
							l-0.024-0.1c-0.548-2.261-1.041-4.297-1.507-6.22l0.152,0.117c-4.104,0.057-7.599,0.106-10.588,0.148l0.112-0.093
							c-0.534,2.503-0.972,4.554-1.336,6.26l-0.011,0.05l-0.049,0.014c-2.242,0.629-3.817,1.364-4.84,1.873
							c-0.513,0.256-0.885,0.465-1.136,0.6C101.985,215.358,101.863,215.414,101.863,215.414s0.121-0.088,0.355-0.236
							c0.243-0.147,0.611-0.369,1.118-0.638c1.014-0.536,2.586-1.299,4.834-1.958l-0.059,0.063c0.346-1.709,0.763-3.765,1.272-6.273
							l0.019-0.091l0.094-0.002c2.989-0.063,6.484-0.137,10.587-0.223l0.123-0.003l0.03,0.12c0.476,1.921,0.98,3.954,1.54,6.212
							l-0.125-0.125c2.125,0.52,4.301,1.327,6.474,2.53l-0.193,0.007c1.701-1.12,3.465-2.281,5.344-3.518l0.133-0.087l0.115,0.111
							c2.412,2.321,4.946,4.76,7.63,7.343l0.124,0.12l-0.09,0.148c-1.074,1.777-2.174,3.597-3.309,5.474l0-0.233
							c1.18,1.947,2.13,4.096,2.783,6.385l-0.177-0.165c2.052,0.425,4.141,0.857,6.267,1.298l0.188,0.039l0.004,0.192
							c0.063,3.442,0.128,6.973,0.194,10.587l0.004,0.198l-0.193,0.047c-2.044,0.502-4.113,1.011-6.215,1.528l0.185-0.184
							c-0.549,2.235-1.401,4.426-2.549,6.487l-0.01-0.264c1.158,1.766,2.327,3.549,3.509,5.35l0.113,0.172l-0.143,0.148
							c-2.417,2.505-4.87,5.047-7.353,7.62l-0.144,0.15l-0.178-0.108c-1.811-1.098-3.635-2.204-5.47-3.316l0.27,0l-0.006,0.003
							c-2.048,1.24-4.258,2.172-6.39,2.775l0.183-0.197c-0.448,2.151-0.893,4.287-1.306,6.266l-0.042,0.202l-0.207,0.004
							c-3.642,0.063-7.235,0.125-10.587,0.182l-0.204,0.004l-0.048-0.198c-0.525-2.146-1.045-4.27-1.521-6.217l0.184,0.185
							c-2.349-0.577-4.578-1.489-6.484-2.556l0.256-0.009c-1.855,1.214-3.686,2.412-5.354,3.503l-0.162,0.106l-0.139-0.135
							c-2.642-2.556-5.22-5.05-7.611-7.363l-0.134-0.129l0.096-0.158c1.157-1.903,2.293-3.772,3.323-5.466l0,0.232
							c-1.261-2.087-2.181-4.305-2.766-6.389l0.163,0.152c-2.189-0.459-4.325-0.907-6.264-1.314l-0.161-0.034l-0.003-0.164
							c-0.058-3.715-0.114-7.254-0.166-10.588l-0.002-0.149l0.144-0.035c2.183-0.53,4.282-1.04,6.22-1.51l-0.125,0.125
							c0.594-2.385,1.494-4.555,2.56-6.457l0.006,0.158c-1.257-1.932-2.433-3.738-3.49-5.362l-0.058-0.089l0.073-0.075
							c3.012-3.092,5.502-5.646,7.39-7.584l0.047-0.048l0.056,0.035c1.759,1.089,3.111,1.925,4.039,2.5
							c0.447,0.281,0.79,0.497,1.038,0.653C101.745,215.328,101.863,215.414,101.863,215.414z"/>
					</g>
				</g>
			</g>
		</g>
	</g>
	<g>
		<g>
			<g>
				<path style="fill:#F5F5F5;" d="M333.163,123.825c3.466-2.094,7.155-3.682,10.96-4.763l2.258-10.849l18.33-0.321l2.638,10.762
					c3.841,0.946,7.585,2.404,11.122,4.375l9.264-6.072l13.189,12.734l-5.742,9.47c2.095,3.467,3.683,7.158,4.763,10.963
					l10.848,2.257l0.322,18.33l-10.762,2.639c-0.946,3.84-2.404,7.583-4.375,11.12l6.071,9.265l-12.732,13.189l-9.471-5.742
					c-3.466,2.095-7.156,3.682-10.962,4.763l-2.258,10.849l-18.329,0.322l-2.638-10.763c-3.841-0.947-7.583-2.404-11.121-4.375
					l-9.264,6.072l-13.189-12.734l5.742-9.47c-2.095-3.466-3.683-7.156-4.764-10.962l-10.848-2.258l-0.322-18.329l10.762-2.639
					c0.947-3.84,2.405-7.583,4.375-11.121l-6.072-9.264l12.733-13.189L333.163,123.825L333.163,123.825z M342.934,148.243
					c-7.544,7.814-7.326,20.264,0.489,27.808c7.814,7.544,20.264,7.325,27.808-0.489c7.544-7.814,7.326-20.264-0.489-27.808
					C362.928,140.21,350.478,140.429,342.934,148.243z"/>
				<g>
					<path style="fill:none;" d="M333.163,123.825c3.466-2.094,7.155-3.682,10.96-4.763l2.258-10.849l18.33-0.321l2.638,10.762
						c3.841,0.946,7.585,2.404,11.122,4.375l9.264-6.072l13.189,12.734l-5.742,9.47c2.095,3.467,3.683,7.158,4.763,10.963
						l10.848,2.257l0.322,18.33l-10.762,2.639c-0.946,3.84-2.404,7.583-4.375,11.12l6.071,9.265l-12.732,13.189l-9.471-5.742
						c-3.466,2.095-7.156,3.682-10.962,4.763l-2.258,10.849l-18.329,0.322l-2.638-10.763c-3.841-0.947-7.583-2.404-11.121-4.375
						l-9.264,6.072l-13.189-12.734l5.742-9.47c-2.095-3.466-3.683-7.156-4.764-10.962l-10.848-2.258l-0.322-18.329l10.762-2.639
						c0.947-3.84,2.405-7.583,4.375-11.121l-6.072-9.264l12.733-13.189L333.163,123.825L333.163,123.825z M342.934,148.243
						c-7.544,7.814-7.326,20.264,0.489,27.808c7.814,7.544,20.264,7.325,27.808-0.489c7.544-7.814,7.326-20.264-0.489-27.808
						C362.928,140.21,350.478,140.429,342.934,148.243z"/>
					<g>
						<path style="fill:#263238;" d="M342.934,148.243c-0.007-0.006,0.066-0.086,0.214-0.237c0.17-0.169,0.39-0.386,0.667-0.66
							c0.289-0.296,0.661-0.646,1.149-1.004c0.475-0.374,1.013-0.819,1.695-1.213c1.302-0.878,3.067-1.705,5.213-2.321
							c2.147-0.604,4.725-0.92,7.53-0.599c2.789,0.327,5.835,1.247,8.607,3.095c2.741,1.846,5.329,4.466,6.939,7.858
							c0.85,1.666,1.437,3.515,1.755,5.445c0.198,0.962,0.227,1.953,0.296,2.95c-0.03,0.999-0.028,2.01-0.195,3.017
							c-0.494,4.048-2.41,8.033-5.383,11.167c-1.522,1.536-3.25,2.823-5.108,3.81c-1.85,1.012-3.867,1.608-5.865,1.966
							c-1.001,0.202-2.012,0.235-3.009,0.301c-0.999-0.034-1.991-0.029-2.959-0.192c-1.94-0.25-3.809-0.772-5.504-1.562
							c-3.447-1.49-6.156-3.984-8.098-6.66c-1.943-2.706-2.97-5.717-3.395-8.493c-0.419-2.792-0.194-5.379,0.335-7.546
							c0.541-2.166,1.305-3.959,2.137-5.291c0.37-0.695,0.796-1.249,1.153-1.736c0.34-0.5,0.677-0.884,0.963-1.183
							c0.264-0.286,0.473-0.513,0.636-0.689C342.85,148.312,342.928,148.237,342.934,148.243c0.007,0.006-0.058,0.094-0.19,0.258
							c-0.152,0.184-0.348,0.422-0.595,0.721c-0.271,0.308-0.593,0.7-0.917,1.206c-0.34,0.493-0.75,1.051-1.102,1.746
							c-0.797,1.333-1.523,3.115-2.029,5.256c-0.494,2.141-0.689,4.687-0.254,7.424c0.44,2.721,1.466,5.663,3.383,8.298
							c1.915,2.606,4.573,5.031,7.941,6.472c1.656,0.766,3.481,1.269,5.373,1.508c0.945,0.158,1.912,0.149,2.885,0.181
							c0.972-0.067,1.957-0.1,2.932-0.299c3.926-0.627,7.733-2.632,10.684-5.635c2.895-3.055,4.764-6.929,5.252-10.874
							c0.165-0.981,0.163-1.966,0.196-2.94c-0.066-0.972-0.091-1.939-0.283-2.877c-0.305-1.883-0.871-3.688-1.695-5.316
							c-1.558-3.315-4.075-5.886-6.746-7.708c-2.701-1.823-5.677-2.745-8.411-3.09c-2.751-0.338-5.288-0.055-7.411,0.514
							c-2.122,0.581-3.877,1.369-5.182,2.212c-0.683,0.376-1.226,0.805-1.707,1.163c-0.494,0.342-0.875,0.677-1.173,0.959
							c-0.29,0.257-0.521,0.462-0.7,0.62C343.026,148.182,342.941,148.249,342.934,148.243z"/>
					</g>
					<g>
						<path style="fill:#263238;" d="M333.163,123.825c0,0-0.205-0.11-0.61-0.348c-0.415-0.246-1.018-0.604-1.81-1.074
							c-1.613-0.966-3.99-2.39-7.095-4.25l0.103-0.013c-3.236,3.37-7.515,7.826-12.697,13.223l0.015-0.164
							c1.844,2.801,3.894,5.918,6.089,9.253l0.051,0.077l-0.045,0.081c-1.814,3.271-3.339,6.996-4.342,11.087l-0.025,0.101
							l-0.101,0.025c-3.352,0.827-6.983,1.722-10.759,2.653l0.141-0.183c0.107,5.771,0.221,11.896,0.341,18.329l-0.163-0.197
							c3.358,0.696,7.058,1.462,10.85,2.248l0.128,0.026l0.036,0.126c1.009,3.559,2.589,7.345,4.749,10.904l0.07,0.116l-0.071,0.117
							c-1.778,2.936-3.738,6.175-5.736,9.474l-0.037-0.287c4.144,3.997,8.614,8.308,13.196,12.726l-0.301-0.028
							c2.884-1.892,6.052-3.971,9.261-6.076l0.125-0.082l0.131,0.073c3.253,1.816,7.055,3.366,11.061,4.347l0.148,0.036l0.036,0.148
							c0.827,3.371,1.73,7.048,2.642,10.762l-0.252-0.194c5.803-0.103,12.023-0.213,18.329-0.325l-0.249,0.206
							c0.713-3.426,1.482-7.124,2.257-10.849l0.032-0.154l0.151-0.043c3.634-1.028,7.398-2.616,10.888-4.73l0.01-0.006l0.136-0.081
							l0.134,0.081c3.177,1.926,6.335,3.841,9.47,5.742l-0.322,0.042c4.299-4.452,8.547-8.851,12.734-13.187l-0.03,0.32
							c-2.043-3.119-4.066-6.208-6.069-9.266l-0.085-0.13l0.075-0.135c1.959-3.512,3.414-7.246,4.353-11.056l0.037-0.148
							l0.148-0.036c3.64-0.891,7.224-1.768,10.763-2.635l-0.189,0.245c-0.107-6.258-0.212-12.37-0.314-18.33l0.191,0.23
							c-3.681-0.768-7.295-1.523-10.846-2.264l-0.139-0.029l-0.038-0.136c-1.107-3.909-2.723-7.581-4.731-10.91l-0.071-0.117
							l0.071-0.117c1.971-3.246,3.883-6.392,5.749-9.465l0.035,0.268c-4.636-4.485-9.012-8.718-13.176-12.747l0.248,0.023
							c-3.261,2.132-6.32,4.133-9.271,6.062l-0.095,0.062l-0.099-0.055c-3.712-2.071-7.434-3.467-11.072-4.372l-0.101-0.025
							l-0.024-0.1c-0.953-3.914-1.811-7.438-2.621-10.766l0.152,0.117c-7.108,0.11-13.159,0.204-18.33,0.284l0.112-0.093
							c-0.917,4.34-1.667,7.894-2.29,10.842l-0.01,0.05l-0.049,0.014c-3.883,1.1-6.609,2.383-8.378,3.274
							c-0.886,0.448-1.529,0.815-1.961,1.052C333.374,123.716,333.163,123.825,333.163,123.825s0.21-0.14,0.623-0.395
							c0.424-0.25,1.062-0.629,1.943-1.091c1.759-0.918,4.481-2.229,8.371-3.358l-0.059,0.063c0.605-2.951,1.335-6.51,2.225-10.856
							l0.019-0.091l0.094-0.002c5.17-0.101,11.221-0.22,18.329-0.359l0.123-0.002l0.03,0.12c0.82,3.325,1.69,6.847,2.655,10.757
							l-0.125-0.125c3.669,0.902,7.423,2.299,11.172,4.378l-0.193,0.007c2.946-1.936,6.001-3.943,9.257-6.083l0.133-0.087
							l0.115,0.111c4.172,4.021,8.556,8.246,13.2,12.722l0.125,0.12l-0.09,0.148c-1.861,3.076-3.768,6.225-5.734,9.474l0-0.233
							c2.034,3.36,3.671,7.067,4.795,11.016l-0.177-0.165c3.552,0.737,7.168,1.487,10.849,2.251l0.188,0.039l0.003,0.192
							c0.108,5.959,0.218,12.072,0.331,18.329l0.003,0.198l-0.193,0.047c-3.538,0.869-7.121,1.749-10.761,2.642l0.185-0.184
							c-0.948,3.854-2.417,7.632-4.397,11.184l-0.009-0.264c2.004,3.057,4.029,6.145,6.073,9.263l0.113,0.172l-0.143,0.148
							c-4.186,4.337-8.433,8.737-12.731,13.19l-0.144,0.15l-0.178-0.108c-3.136-1.901-6.293-3.816-9.471-5.742l0.27,0l-0.01,0.006
							c-3.531,2.138-7.34,3.745-11.016,4.784l0.183-0.197c-0.776,3.725-1.546,7.422-2.259,10.849l-0.042,0.202l-0.207,0.004
							c-6.306,0.109-12.526,0.217-18.329,0.318l-0.204,0.003l-0.048-0.198c-0.909-3.715-1.81-7.392-2.635-10.763l0.184,0.184
							c-4.05-0.994-7.893-2.565-11.181-4.404l0.256-0.009c-3.211,2.103-6.381,4.178-9.267,6.068l-0.162,0.106l-0.139-0.135
							c-4.577-4.424-9.042-8.74-13.182-12.741l-0.133-0.129l0.096-0.158c2.002-3.296,3.967-6.532,5.749-9.466l0,0.232
							c-2.176-3.598-3.766-7.424-4.778-11.019l0.163,0.152c-3.791-0.793-7.489-1.566-10.846-2.268l-0.161-0.034l-0.003-0.164
							c-0.106-6.433-0.207-12.559-0.302-18.329l-0.003-0.148l0.144-0.035c3.779-0.921,7.411-1.807,10.766-2.625l-0.125,0.125
							c1.022-4.119,2.571-7.867,4.408-11.154l0.006,0.158c-2.182-3.343-4.221-6.467-6.054-9.275l-0.058-0.089l0.073-0.076
							c5.211-5.369,9.514-9.802,12.768-13.155l0.047-0.048l0.056,0.035c3.072,1.885,5.424,3.328,7.02,4.307
							c0.788,0.488,1.387,0.859,1.8,1.115C332.958,123.686,333.163,123.825,333.163,123.825z"/>
					</g>
				</g>
			</g>
		</g>
	</g>
	<g>
		<g>
			<g>
				<path style="fill:#F5F5F5;" d="M266.954,60.101c2.215-1.338,4.572-2.353,7.004-3.044l1.443-6.933l11.714-0.205l1.686,6.877
					c2.455,0.605,4.847,1.536,7.107,2.796l5.92-3.881l8.428,8.138l-3.669,6.051c1.339,2.215,2.353,4.574,3.044,7.006l6.932,1.443
					l0.206,11.713l-6.878,1.686c-0.605,2.454-1.536,4.846-2.796,7.107l3.88,5.92l-8.137,8.428l-6.052-3.67
					c-2.215,1.339-4.573,2.353-7.005,3.044l-1.443,6.933l-11.713,0.205l-1.686-6.878c-2.454-0.605-4.846-1.537-7.107-2.796
					l-5.92,3.881l-8.428-8.137l3.669-6.052c-1.338-2.215-2.354-4.573-3.044-7.005l-6.933-1.443l-0.205-11.713l6.878-1.687
					c0.605-2.454,1.537-4.846,2.796-7.107l-3.88-5.92l8.137-8.428L266.954,60.101L266.954,60.101z M273.198,75.705
					c-4.821,4.994-4.681,12.95,0.312,17.771c4.993,4.821,12.95,4.681,17.77-0.313c4.821-4.993,4.681-12.95-0.312-17.771
					C285.974,70.572,278.019,70.712,273.198,75.705z"/>
				<g>
					<path style="fill:none;" d="M266.954,60.101c2.215-1.338,4.572-2.353,7.004-3.044l1.443-6.933l11.714-0.205l1.686,6.877
						c2.455,0.605,4.847,1.536,7.107,2.796l5.92-3.881l8.428,8.138l-3.669,6.051c1.339,2.215,2.353,4.574,3.044,7.006l6.932,1.443
						l0.206,11.713l-6.878,1.686c-0.605,2.454-1.536,4.846-2.796,7.107l3.88,5.92l-8.137,8.428l-6.052-3.67
						c-2.215,1.339-4.573,2.353-7.005,3.044l-1.443,6.933l-11.713,0.205l-1.686-6.878c-2.454-0.605-4.846-1.537-7.107-2.796
						l-5.92,3.881l-8.428-8.137l3.669-6.052c-1.338-2.215-2.354-4.573-3.044-7.005l-6.933-1.443l-0.205-11.713l6.878-1.687
						c0.605-2.454,1.537-4.846,2.796-7.107l-3.88-5.92l8.137-8.428L266.954,60.101L266.954,60.101z M273.198,75.705
						c-4.821,4.994-4.681,12.95,0.312,17.771c4.993,4.821,12.95,4.681,17.77-0.313c4.821-4.993,4.681-12.95-0.312-17.771
						C285.974,70.572,278.019,70.712,273.198,75.705z"/>
					<g>
						<path style="fill:#263238;" d="M273.198,75.705c0,0,0.667-0.917,2.35-2.037c1.652-1.094,4.535-2.309,8.184-1.919
							c1.797,0.204,3.763,0.792,5.553,1.979c1.771,1.186,3.444,2.874,4.487,5.063c0.55,1.075,0.931,2.269,1.138,3.515
							c0.224,1.244,0.256,2.552,0.069,3.854c-0.318,2.615-1.554,5.192-3.476,7.217c-1.956,1.993-4.488,3.32-7.091,3.73
							c-1.295,0.233-2.604,0.247-3.855,0.067c-1.253-0.163-2.46-0.502-3.553-1.014c-2.224-0.966-3.97-2.579-5.218-4.307
							c-1.249-1.748-1.906-3.692-2.173-5.481c-0.518-3.634,0.596-6.557,1.631-8.246C272.305,76.404,273.198,75.705,273.198,75.705
							c0.063,0.052-0.769,0.815-1.744,2.54c-0.953,1.695-1.963,4.559-1.408,8.06c0.286,1.724,0.941,3.585,2.158,5.25
							c1.216,1.646,2.901,3.177,5.032,4.084c1.048,0.483,2.202,0.799,3.398,0.948c1.195,0.167,2.443,0.149,3.676-0.078
							c2.48-0.398,4.884-1.665,6.748-3.562c1.829-1.93,3.01-4.376,3.321-6.868c0.183-1.24,0.158-2.488-0.051-3.676
							c-0.191-1.19-0.548-2.332-1.067-3.362c-0.981-2.098-2.57-3.727-4.258-4.885c-1.706-1.158-3.589-1.748-5.322-1.973
							c-3.518-0.433-6.346,0.677-8.006,1.69C273.985,74.908,273.253,75.767,273.198,75.705z"/>
					</g>
					<g>
						<path style="fill:#263238;" d="M266.954,60.101c0,0-0.131-0.062-0.39-0.211c-0.279-0.162-0.662-0.385-1.16-0.675
							c-1.049-0.622-2.573-1.526-4.554-2.7l0.122-0.016c-2.069,2.165-4.796,5.017-8.095,8.469l0.018-0.195
							c1.182,1.789,2.495,3.778,3.9,5.907l0.06,0.091l-0.053,0.097c-1.152,2.086-2.121,4.46-2.757,7.067l-0.029,0.119l-0.12,0.03
							c-2.142,0.531-4.461,1.105-6.873,1.703l0.168-0.218c0.072,3.688,0.148,7.602,0.229,11.713l-0.194-0.234
							c2.147,0.443,4.511,0.931,6.935,1.431l0.151,0.031l0.043,0.149c0.644,2.265,1.651,4.673,3.027,6.937l0.084,0.138l-0.084,0.139
							c-1.135,1.877-2.387,3.948-3.662,6.056l-0.044-0.341c2.65,2.553,5.508,5.307,8.437,8.129l-0.358-0.034
							c1.843-1.21,3.866-2.539,5.917-3.885l0.149-0.098l0.156,0.087c2.069,1.154,4.488,2.139,7.035,2.762l0.176,0.043l0.043,0.176
							c0.529,2.154,1.107,4.503,1.69,6.877l-0.299-0.231c3.708-0.066,7.683-0.138,11.713-0.21l-0.295,0.245
							c0.455-2.19,0.947-4.553,1.442-6.933l0.038-0.183l0.18-0.051c2.31-0.654,4.704-1.664,6.923-3.007l0.006-0.004l0.162-0.096
							l0.159,0.096c2.03,1.231,4.048,2.455,6.052,3.67l-0.382,0.05c2.748-2.845,5.463-5.656,8.138-8.426l-0.036,0.381
							c-1.305-1.994-2.598-3.967-3.877-5.922l-0.101-0.154l0.089-0.16c1.246-2.233,2.172-4.607,2.77-7.03l0.044-0.176l0.176-0.043
							c2.326-0.569,4.617-1.129,6.878-1.682l-0.224,0.291c-0.067-3.999-0.132-7.905-0.196-11.713l0.227,0.274
							c-2.352-0.492-4.661-0.975-6.93-1.45l-0.165-0.035l-0.046-0.161c-0.703-2.487-1.729-4.824-3.006-6.943l-0.084-0.139
							l0.084-0.138c1.261-2.073,2.484-4.083,3.678-6.046l0.041,0.318c-2.96-2.868-5.754-5.575-8.414-8.152l0.294,0.028
							c-2.085,1.36-4.041,2.637-5.928,3.868l-0.113,0.074l-0.117-0.065c-2.362-1.321-4.731-2.213-7.048-2.793l-0.12-0.03
							l-0.029-0.119c-0.605-2.501-1.151-4.754-1.666-6.882l0.181,0.139c-4.539,0.062-8.406,0.116-11.714,0.161l0.133-0.11
							c-0.592,2.768-1.077,5.037-1.481,6.925l-0.013,0.059l-0.058,0.016c-2.48,0.695-4.223,1.507-5.355,2.069
							c-0.567,0.283-0.98,0.513-1.258,0.662C267.088,60.04,266.954,60.101,266.954,60.101s0.134-0.098,0.392-0.263
							c0.269-0.163,0.675-0.409,1.237-0.708c1.122-0.594,2.86-1.44,5.348-2.169l-0.07,0.075c0.383-1.892,0.843-4.166,1.404-6.941
							l0.022-0.108l0.112-0.002c3.308-0.07,7.174-0.153,11.713-0.25l0.146-0.003l0.035,0.143c0.527,2.125,1.086,4.375,1.705,6.872
							l-0.149-0.149c2.353,0.575,4.761,1.468,7.167,2.799l-0.23,0.008c1.882-1.239,3.833-2.524,5.912-3.893l0.158-0.104l0.137,0.132
							c2.669,2.568,5.472,5.265,8.442,8.123l0.148,0.142l-0.107,0.176c-1.188,1.966-2.405,3.98-3.66,6.057l0-0.277
							c1.307,2.156,2.359,4.534,3.081,7.068l-0.21-0.195c2.27,0.47,4.581,0.948,6.934,1.435l0.223,0.046l0.004,0.228
							c0.07,3.808,0.142,7.714,0.216,11.713l0.004,0.235l-0.229,0.056c-2.261,0.556-4.551,1.119-6.876,1.691l0.219-0.219
							c-0.608,2.474-1.551,4.901-2.822,7.182l-0.011-0.314c1.281,1.953,2.575,3.926,3.882,5.919l0.134,0.205l-0.17,0.176
							c-2.674,2.772-5.388,5.584-8.135,8.43l-0.171,0.178l-0.211-0.128c-2.004-1.215-4.022-2.438-6.052-3.669l0.32,0l-0.006,0.004
							c-2.268,1.373-4.714,2.405-7.074,3.072l0.218-0.234c-0.496,2.38-0.988,4.743-1.444,6.932l-0.05,0.241l-0.246,0.004
							c-4.029,0.069-8.005,0.138-11.713,0.201l-0.242,0.004l-0.058-0.235c-0.581-2.374-1.155-4.724-1.682-6.879l0.219,0.219
							c-2.6-0.639-5.068-1.648-7.178-2.83l0.304-0.011c-2.052,1.343-4.078,2.669-5.923,3.875l-0.193,0.126l-0.165-0.16
							c-2.923-2.828-5.775-5.587-8.42-8.146l-0.159-0.154l0.114-0.188c1.28-2.105,2.537-4.173,3.677-6.047l0,0.276
							c-1.395-2.31-2.414-4.766-3.062-7.073l0.194,0.18c-2.422-0.508-4.785-1.004-6.93-1.454l-0.191-0.04l-0.003-0.194
							c-0.064-4.111-0.125-8.025-0.182-11.713l-0.003-0.177l0.171-0.041c2.415-0.586,4.737-1.149,6.882-1.67l-0.149,0.149
							c0.659-2.64,1.654-5.041,2.835-7.146l0.007,0.188c-1.391-2.138-2.69-4.136-3.859-5.933l-0.069-0.106l0.087-0.089
							c3.333-3.418,6.088-6.243,8.178-8.388l0.056-0.057l0.067,0.041c1.943,1.204,3.436,2.131,4.466,2.769
							c0.493,0.311,0.872,0.55,1.148,0.724C266.823,60.004,266.954,60.101,266.954,60.101z"/>
					</g>
				</g>
			</g>
		</g>
	</g>
	<g>
		<g>
			<g>
				<path style="fill:#F5F5F5;" d="M120.496,301.911c3.617-2.186,7.467-3.843,11.438-4.971l2.356-11.322l19.129-0.335l2.753,11.231
					c4.009,0.988,7.915,2.509,11.607,4.566l9.668-6.337l13.763,13.29l-5.992,9.882c2.186,3.618,3.843,7.47,4.971,11.441
					l11.321,2.356l0.336,19.129l-11.231,2.754c-0.988,4.008-2.509,7.914-4.566,11.605l6.336,9.668l-13.287,13.764l-9.884-5.993
					c-3.617,2.186-7.468,3.843-11.44,4.97l-2.357,11.322l-19.128,0.336l-2.753-11.232c-4.008-0.988-7.914-2.509-11.606-4.566
					l-9.668,6.337l-13.764-13.289l5.993-9.883c-2.186-3.618-3.844-7.468-4.971-11.44l-11.321-2.356l-0.336-19.128l11.232-2.754
					c0.988-4.008,2.51-7.914,4.566-11.605l-6.336-9.668l13.288-13.764L120.496,301.911L120.496,301.911z M130.693,327.394
					c-7.873,8.155-7.645,21.148,0.51,29.02c8.154,7.873,21.148,7.644,29.02-0.51c7.872-8.155,7.645-21.148-0.51-29.02
					C151.558,319.011,138.566,319.24,130.693,327.394z"/>
				<g>
					<path style="fill:none;" d="M120.496,301.911c3.617-2.186,7.467-3.843,11.438-4.971l2.356-11.322l19.129-0.335l2.753,11.231
						c4.009,0.988,7.915,2.509,11.607,4.566l9.668-6.337l13.763,13.29l-5.992,9.882c2.186,3.618,3.843,7.47,4.971,11.441
						l11.321,2.356l0.336,19.129l-11.231,2.754c-0.988,4.008-2.509,7.914-4.566,11.605l6.336,9.668l-13.287,13.764l-9.884-5.993
						c-3.617,2.186-7.468,3.843-11.44,4.97l-2.357,11.322l-19.128,0.336l-2.753-11.232c-4.008-0.988-7.914-2.509-11.606-4.566
						l-9.668,6.337l-13.764-13.289l5.993-9.883c-2.186-3.618-3.844-7.468-4.971-11.44l-11.321-2.356l-0.336-19.128l11.232-2.754
						c0.988-4.008,2.51-7.914,4.566-11.605l-6.336-9.668l13.288-13.764L120.496,301.911L120.496,301.911z M130.693,327.394
						c-7.873,8.155-7.645,21.148,0.51,29.02c8.154,7.873,21.148,7.644,29.02-0.51c7.872-8.155,7.645-21.148-0.51-29.02
						C151.558,319.011,138.566,319.24,130.693,327.394z"/>
					<g>
						<path style="fill:#263238;" d="M130.693,327.394c-0.006-0.006,0.07-0.089,0.224-0.246c0.177-0.174,0.407-0.401,0.697-0.688
							c0.302-0.309,0.69-0.674,1.199-1.047c0.495-0.39,1.058-0.854,1.769-1.265c1.359-0.916,3.2-1.777,5.439-2.42
							c2.24-0.63,4.929-0.959,7.856-0.624c2.909,0.342,6.086,1.302,8.977,3.23c2.86,1.926,5.558,4.659,7.237,8.197
							c0.465,0.861,0.779,1.799,1.128,2.735c0.259,0.962,0.576,1.929,0.702,2.944c0.206,1.003,0.237,2.038,0.309,3.077
							c-0.032,1.042-0.029,2.096-0.203,3.147c-0.3,2.095-0.848,4.219-1.834,6.184c-0.96,1.973-2.237,3.821-3.781,5.463
							c-1.587,1.602-3.39,2.944-5.328,3.974c-1.93,1.055-4.034,1.677-6.117,2.051c-1.044,0.211-2.098,0.246-3.138,0.314
							c-1.042-0.035-2.077-0.03-3.087-0.2c-1.02-0.09-1.997-0.373-2.968-0.598c-0.948-0.316-1.897-0.597-2.773-1.031
							c-3.596-1.554-6.422-4.156-8.447-6.946c-2.027-2.822-3.099-5.963-3.543-8.859c-0.437-2.913-0.203-5.612,0.348-7.872
							c0.564-2.26,1.36-4.131,2.228-5.521c0.385-0.725,0.83-1.303,1.202-1.812c0.355-0.522,0.706-0.923,1.004-1.235
							c0.276-0.3,0.495-0.538,0.663-0.72C130.606,327.466,130.687,327.388,130.693,327.394c0.007,0.006-0.061,0.097-0.199,0.269
							c-0.158,0.191-0.363,0.439-0.622,0.752c-0.283,0.322-0.619,0.73-0.958,1.258c-0.356,0.514-0.784,1.096-1.151,1.822
							c-0.833,1.392-1.591,3.252-2.12,5.486c-0.517,2.235-0.72,4.893-0.267,7.75c0.459,2.841,1.53,5.912,3.53,8.664
							c1.999,2.721,4.774,5.253,8.291,6.758c0.857,0.422,1.785,0.692,2.711,0.999c0.949,0.216,1.903,0.491,2.899,0.576
							c0.986,0.165,1.996,0.156,3.013,0.189c1.015-0.07,2.044-0.104,3.061-0.313c2.032-0.368,4.083-0.976,5.963-2.007
							c1.888-1.006,3.645-2.314,5.193-3.876c1.506-1.602,2.751-3.404,3.689-5.326c0.964-1.915,1.499-3.985,1.795-6.028
							c0.173-1.024,0.17-2.053,0.205-3.07c-0.07-1.014-0.096-2.024-0.295-3.004c-0.119-0.992-0.428-1.936-0.677-2.877
							c-0.339-0.914-0.641-1.832-1.093-2.674c-1.627-3.462-4.255-6.146-7.044-8.048c-2.82-1.903-5.927-2.865-8.782-3.224
							c-2.872-0.352-5.521-0.056-7.736,0.539c-2.215,0.607-4.047,1.43-5.409,2.311c-0.713,0.393-1.279,0.841-1.781,1.215
							c-0.515,0.357-0.912,0.707-1.224,1.002c-0.304,0.27-0.545,0.483-0.73,0.648C130.788,327.329,130.699,327.4,130.693,327.394z"
							/>
					</g>
					<g>
						<path style="fill:#263238;" d="M120.496,301.911c0,0-0.214-0.115-0.637-0.364c-0.433-0.257-1.062-0.63-1.889-1.121
							c-1.682-1.008-4.163-2.495-7.402-4.436l0.103-0.013c-3.377,3.516-7.844,8.166-13.252,13.798l0.015-0.164
							c1.924,2.924,4.063,6.176,6.354,9.656l0.051,0.077l-0.045,0.081c-1.893,3.413-3.486,7.302-4.533,11.572l-0.025,0.101
							l-0.101,0.025c-3.499,0.862-7.287,1.796-11.228,2.768l0.141-0.183c0.112,6.022,0.23,12.415,0.355,19.128l-0.163-0.197
							c3.505,0.726,7.365,1.526,11.323,2.346l0.128,0.026l0.036,0.126c1.054,3.715,2.702,7.667,4.957,11.382l0.07,0.116
							l-0.071,0.117c-1.855,3.064-3.902,6.444-5.986,9.887l-0.037-0.287c4.325,4.171,8.99,8.67,13.771,13.281l-0.301-0.028
							c3.01-1.975,6.316-4.144,9.665-6.341l0.125-0.082l0.131,0.073c3.396,1.895,7.364,3.514,11.545,4.538l0.148,0.036l0.036,0.148
							c0.863,3.518,1.805,7.355,2.756,11.231l-0.252-0.194c6.056-0.107,12.547-0.223,19.128-0.339l-0.249,0.206
							c0.744-3.576,1.547-7.435,2.355-11.322l0.032-0.154l0.152-0.043c3.793-1.073,7.723-2.731,11.366-4.937l0.01-0.006l0.136-0.081
							l0.133,0.081c3.316,2.01,6.611,4.009,9.883,5.993l-0.322,0.042c4.487-4.646,8.92-9.237,13.289-13.762l-0.03,0.32
							c-2.132-3.255-4.243-6.478-6.334-9.669l-0.085-0.13l0.075-0.135c2.045-3.666,3.564-7.564,4.544-11.541l0.037-0.148
							l0.148-0.036c3.799-0.93,7.539-1.846,11.232-2.75l-0.189,0.245c-0.112-6.53-0.221-12.909-0.328-19.129l0.191,0.23
							c-3.841-0.802-7.613-1.589-11.319-2.362l-0.139-0.029l-0.038-0.136c-1.156-4.081-2.842-7.913-4.939-11.388l-0.07-0.117
							l0.071-0.116c2.057-3.387,4.052-6.671,5.999-9.878l0.035,0.268c-4.838-4.68-9.405-9.098-13.751-13.302l0.248,0.023
							c-3.403,2.225-6.596,4.313-9.674,6.327l-0.095,0.062l-0.099-0.055c-3.875-2.161-7.759-3.618-11.557-4.563l-0.101-0.025
							l-0.024-0.1c-0.995-4.085-1.89-7.762-2.736-11.235l0.152,0.117c-7.418,0.116-13.733,0.214-19.129,0.298l0.112-0.093
							c-0.956,4.53-1.739,8.239-2.388,11.315l-0.01,0.05l-0.049,0.014c-4.053,1.148-6.897,2.488-8.743,3.418
							c-0.924,0.468-1.595,0.851-2.046,1.099C120.716,301.797,120.496,301.911,120.496,301.911s0.219-0.146,0.651-0.411
							c0.442-0.26,1.108-0.656,2.028-1.138c1.836-0.957,4.677-2.325,8.737-3.503l-0.059,0.063c0.632-3.08,1.393-6.793,2.324-11.328
							l0.019-0.091l0.094-0.002c5.396-0.105,11.71-0.228,19.128-0.373l0.123-0.002l0.03,0.12c0.856,3.47,1.763,7.145,2.769,11.227
							l-0.125-0.125c3.828,0.941,7.746,2.399,11.657,4.569l-0.193,0.007c3.074-2.02,6.263-4.115,9.661-6.347l0.133-0.087
							l0.115,0.111c4.354,4.197,8.929,8.606,13.775,13.277l0.124,0.12l-0.09,0.148c-1.943,3.21-3.932,6.496-5.985,9.887l0-0.233
							c2.122,3.506,3.83,7.374,5.002,11.494l-0.177-0.165c3.707,0.769,7.48,1.552,11.322,2.35l0.188,0.039l0.003,0.192
							c0.112,6.219,0.227,12.598,0.345,19.128l0.004,0.198l-0.193,0.047c-3.692,0.907-7.432,1.825-11.23,2.757l0.185-0.185
							c-0.989,4.021-2.522,7.962-4.587,11.669l-0.01-0.264c2.092,3.19,4.204,6.413,6.338,9.667l0.113,0.172l-0.143,0.148
							c-4.368,4.526-8.8,9.118-13.286,13.765l-0.144,0.15l-0.178-0.108c-3.273-1.984-6.568-3.982-9.884-5.992l0.27,0l-0.01,0.006
							c-3.684,2.231-7.658,3.907-11.493,4.991l0.183-0.197c-0.809,3.887-1.613,7.746-2.358,11.322l-0.042,0.202l-0.207,0.004
							c-6.581,0.114-13.072,0.227-19.128,0.332l-0.204,0.004l-0.049-0.198c-0.949-3.877-1.889-7.715-2.75-11.233l0.184,0.185
							c-4.225-1.038-8.236-2.676-11.666-4.595l0.256-0.009c-3.351,2.194-6.659,4.361-9.67,6.333l-0.162,0.106l-0.139-0.134
							c-4.776-4.616-9.436-9.12-13.757-13.296l-0.133-0.129l0.096-0.158c2.089-3.44,4.14-6.817,5.999-9.879l0,0.232
							c-2.271-3.754-3.929-7.746-4.986-11.497l0.163,0.152c-3.956-0.827-7.816-1.634-11.319-2.366l-0.161-0.034l-0.003-0.164
							c-0.111-6.714-0.217-13.106-0.316-19.129l-0.002-0.148l0.144-0.035c3.943-0.962,7.734-1.886,11.235-2.74l-0.125,0.125
							c1.066-4.298,2.682-8.209,4.598-11.639l0.006,0.158c-2.278-3.489-4.406-6.749-6.319-9.679l-0.058-0.089l0.073-0.076
							c5.438-5.604,9.928-10.231,13.323-13.73l0.047-0.048l0.056,0.035c3.207,1.967,5.663,3.473,7.328,4.494
							c0.823,0.51,1.449,0.897,1.879,1.163C120.282,301.767,120.496,301.911,120.496,301.911z"/>
					</g>
				</g>
			</g>
		</g>
	</g>
</g>
<g id="Character_00000142860013585290642430000009209957972687131558_">
	<g>
		<g>
			<g>
				<g>
					<g>
						<g>
							<g>
								<path style="fill:#AE7461;" d="M332.703,369.846c-2.248-1.445-32.112-7.657-32.112-7.657l-72.013,1.877l-25.792,4.758
									c0,0-4.778,80.017-4.063,81.462c0.716,1.445,53.795,0.575,55.204,2.02c1.41,1.445,50.439,6.65,50.439,6.65l45.376-81.403
									L332.703,369.846z"/>
							</g>
							<path style="fill:#FF725E;" d="M400.657,390.21c-16.349-13.88-81.001-25.623-84.614-25.623c0,0-4.973,40.285-50.008,40.285
								c-38.27,0-47.418-38.967-47.418-38.967l-27.933,4.39c-4.303,0.819-42.517,9.764-48.788,11.543
								c-13.05,3.702-39.789,13.176-47.531,41.43c-2.867,10.462-2.786,29.289-6.218,44.318l68.066,0.012
								c0,0,219.725,0.193,219.749-0.015l73.881,0.063C449.842,467.644,417.983,404.918,400.657,390.21z"/>
						</g>
					</g>
				</g>
			</g>
			<g>
				<path style="fill:#263238;" d="M148.167,467.727c-0.135,0.05-3.029-7.446-6.462-16.739c-3.435-9.297-6.109-16.871-5.974-16.921
					c0.135-0.05,3.028,7.444,6.463,16.741C145.627,460.101,148.302,467.677,148.167,467.727z"/>
			</g>
			<g>
				<path style="fill:#263238;" d="M366.771,467.388c-0.036,0-0.07-0.439-0.1-1.232c-0.021-0.901-0.047-2.025-0.078-3.359
					c-0.043-2.948-0.099-6.808-0.161-11.076c-0.096-4.324-0.282-8.233-0.486-11.059c-0.102-1.329-0.187-2.449-0.256-3.346
					c-0.063-0.79-0.082-1.23-0.046-1.235c0.036-0.005,0.122,0.426,0.247,1.211c0.129,0.784,0.274,1.925,0.421,3.338
					c0.299,2.826,0.544,6.746,0.64,11.079c0.094,4.331,0.058,8.252,0.009,11.089c-0.035,1.334-0.064,2.459-0.087,3.359
					C366.842,466.95,366.807,467.388,366.771,467.388z"/>
			</g>
			<g style="opacity:0.3;">
				<path d="M237.49,467.774c3.078-13.21,6.523-26.318,7.422-40.774c0.153-2.464,0.234-4.984,1.114-7.292
					c1.808-4.742,6.837-8.245,6.959-13.318c0.127-5.312-5.961-9.271-11.179-8.266c-5.218,1.005-9.119,5.632-10.886,10.644
					c-1.768,5.011-1.81,10.437-2.029,15.746c-0.558,13.473-10.322,30.13-13.388,43.26"/>
			</g>
		</g>
		<g>
			<path style="fill:#263238;" d="M218.796,134.156c-23.084,5.586-44.757,27.917-54.451,49.218s-10.214,41.444-7.26,64.591
				c1.792,14.038,5.722,28.262,8.27,41.612c2.652,13.899-3.953,33.363-11.561,45.382c-2.872,4.538-6.717,9.454-5.339,14.621
				c1.277,4.79,6.539,7.378,11.416,8.652c9.968,2.605,20.724,2.227,30.477-1.07c-0.432,3.427-0.864,6.853-1.296,10.28
				c26.288-0.533,51.607-9.21,76.404-17.79c8.308-2.875,16.992-5.992,22.828-12.466c3.212-3.564,5.341-7.922,7.369-12.243
				c8.173-17.411,15.404-35.249,21.652-53.412"/>
			<g>
				<g>
					<path style="fill:#263238;" d="M336.971,165.844c-19.956-24.393-46.757-38.435-78.269-38.957
						c-17.778-0.294-25.135,3.401-37.938,6.855c-12.803,3.454-24.355,10.322-31.993,21.164
						c-9.072,12.875-16.692,27.294-18.408,42.951c-1.761,16.083-3.526,32.275-2.312,48.408c1.213,16.134,5.595,32.382,15.096,45.478
						l41.051,7.132c22.672,0.773,45.657,1.516,67.744-3.656c22.087-5.172,43.548-17.056,55.377-36.412
						C363.752,231.915,356.928,190.237,336.971,165.844z"/>
				</g>
				<g>
					<path style="fill:#AE7461;" d="M300.444,165.574l-54.727-21.754l-14.297,1.661c-32.169,0.114-54.356,35.592-54.566,61.647
						c-0.234,28.946,0.622,64.295,5.221,85.631c9.248,42.901,45.863,46.472,45.863,46.472s-0.749,22.862-1.024,37.267l83.786-6.049
						l4.211-190.183C314.634,172.357,308.349,165.974,300.444,165.574z"/>
					<g>
						<g>
							<g>
								<g>
									<g>
										<g>
											<g>
												<g>
													<g>
														<g>
															<g>
																<g>
																	<g>
																		<g>
																			<g>
																				<g>
																					<g>
																						<g>
																							<g>
																								<g>
																									<path style="fill:#263238;" d="M198.456,242.285c0.058,2.938,2.592,5.311,5.66,5.307
																										c3.062-0.003,5.504-2.381,5.447-5.318c-0.057-2.937-2.592-5.313-5.653-5.309
																										C200.84,236.967,198.398,239.349,198.456,242.285z"/>
																								</g>
																							</g>
																						</g>
																					</g>
																				</g>
																			</g>
																		</g>
																	</g>
																</g>
															</g>
														</g>
													</g>
												</g>
											</g>
										</g>
									</g>
								</g>
								<g>
									<g>
										<g>
											<g>
												<g>
													<g>
														<g>
															<g>
																<g>
																	<g>
																		<g>
																			<g>
																				<g>
																					<g>
																						<g>
																							<g>
																								<g>
																									<g>
																										<path style="fill:#263238;" d="M185.945,228.35c0.738,0.664,4.899-2.497,11.015-2.74
																											c6.104-0.324,10.733,2.432,11.363,1.703c0.312-0.324-0.468-1.545-2.484-2.794
																											c-1.987-1.244-5.33-2.395-9.138-2.221c-3.807,0.18-6.949,1.628-8.725,3.047
																											C186.161,226.773,185.584,228.054,185.945,228.35z"/>
																									</g>
																								</g>
																							</g>
																						</g>
																					</g>
																				</g>
																			</g>
																		</g>
																	</g>
																</g>
															</g>
														</g>
													</g>
												</g>
											</g>
										</g>
									</g>
								</g>
								<g>
									<g>
										<g>
											<g>
												<g>
													<g>
														<g>
															<g>
																<g>
																	<g>
																		<g>
																			<g>
																				<g>
																					<g>
																						<g>
																							<g>
																								<g>
																									<path style="fill:#263238;" d="M225.043,268.443c0.01-0.341-3.738-0.778-9.797-1.218
																										c-1.533-0.074-2.994-0.298-3.308-1.324c-0.42-1.083,0.128-2.761,0.77-4.576
																										c1.232-3.77,2.52-7.721,3.873-11.862c5.355-16.878,9.144-30.724,8.463-30.932
																										c-0.683-0.211-5.577,13.301-10.933,30.179c-1.283,4.16-2.512,8.126-3.679,11.92
																										c-0.483,1.765-1.367,3.785-0.463,6.03c0.474,1.118,1.638,1.882,2.631,2.093
																										c0.994,0.245,1.852,0.213,2.61,0.218C221.281,268.962,225.039,268.783,225.043,268.443z"/>
																								</g>
																							</g>
																						</g>
																					</g>
																				</g>
																			</g>
																		</g>
																	</g>
																</g>
															</g>
														</g>
													</g>
												</g>
											</g>
										</g>
									</g>
								</g>
								<g>
									<g>
										<g>
											<g>
												<g>
													<g>
														<g>
															<g>
																<g>
																	<g>
																		<g>
																			<g>
																				<g>
																					<g>
																						<g>
																							<g>
																								<path style="fill:#6F4439;" d="M227.868,339.184c0,0,29.218,0.28,57.113-18.642
																									c0,0-13.794,30.846-57.333,29.174L227.868,339.184z"/>
																							</g>
																						</g>
																					</g>
																				</g>
																			</g>
																		</g>
																	</g>
																</g>
															</g>
														</g>
													</g>
												</g>
											</g>
										</g>
									</g>
								</g>
								<g>
									<g>
										<g>
											<g>
												<g>
													<g>
														<g>
															<g>
																<g>
																	<g>
																		<g>
																			<g>
																				<g>
																					<g>
																						<g>
																							<g>
																								<g>
																									<g>
																										<g>
																											<path style="fill:#263238;" d="M187.477,212.258c1.084,1.403,5.604,0.177,10.972,0.328
																												c5.372-0.021,9.873,1.315,10.975-0.063c0.488-0.671-0.174-2.06-2.107-3.425
																												c-1.905-1.36-5.134-2.54-8.826-2.587c-3.69-0.041-6.935,1.058-8.857,2.373
																												C187.681,210.203,187.002,211.575,187.477,212.258z"/>
																										</g>
																									</g>
																								</g>
																							</g>
																						</g>
																					</g>
																				</g>
																			</g>
																		</g>
																	</g>
																</g>
															</g>
														</g>
													</g>
												</g>
											</g>
										</g>
									</g>
								</g>
								<g>
									<g>
										<g>
											<g>
												<g>
													<g>
														<g>
															<g>
																<g>
																	<g>
																		<g>
																			<g>
																				<g>
																					<g>
																						<g>
																							<g>
																								<g>
																									<path style="fill:#263238;" d="M267.632,241.04c0.155,2.934-2.201,5.483-5.262,5.7
																										c-3.054,0.218-5.661-1.977-5.817-4.91c-0.155-2.934,2.203-5.486,5.255-5.704
																										C264.87,235.908,267.477,238.107,267.632,241.04z"/>
																								</g>
																							</g>
																						</g>
																					</g>
																				</g>
																			</g>
																		</g>
																	</g>
																</g>
															</g>
														</g>
													</g>
												</g>
											</g>
										</g>
									</g>
								</g>
								<g>
									<g>
										<g>
											<g>
												<g>
													<g>
														<g>
															<g>
																<g>
																	<g>
																		<g>
																			<g>
																				<g>
																					<g>
																						<g>
																							<g>
																								<g>
																									<g>
																										<path style="fill:#263238;" d="M270.824,225.662c-0.711,0.837-5.509-2.336-12.059-1.966
																											c-6.547,0.278-11.17,3.921-11.924,3.153c-0.369-0.337,0.323-1.816,2.331-3.459
																											c1.978-1.633,5.413-3.305,9.493-3.51c4.082-0.198,7.596,1.124,9.652,2.559
																											C270.415,223.882,271.177,225.284,270.824,225.662z"/>
																									</g>
																								</g>
																							</g>
																						</g>
																					</g>
																				</g>
																			</g>
																		</g>
																	</g>
																</g>
															</g>
														</g>
													</g>
												</g>
											</g>
										</g>
									</g>
								</g>
								<g>
									<g>
										<g>
											<g>
												<g>
													<g>
														<g>
															<g>
																<g>
																	<g>
																		<g>
																			<g>
																				<g>
																					<g>
																						<g>
																							<g>
																								<g>
																									<g>
																										<g>
																											<path style="fill:#263238;" d="M261.93,204.69c-1.154,1.378-5.794,0.05-11.343,0.08
																												c-5.55-0.143-10.232,1.09-11.337-0.311c-0.487-0.682,0.23-2.055,2.261-3.377
																												c2.001-1.316,5.365-2.423,9.181-2.386c3.814,0.042,7.14,1.215,9.093,2.573
																												C261.77,202.63,262.437,204.018,261.93,204.69z"/>
																										</g>
																									</g>
																								</g>
																							</g>
																						</g>
																					</g>
																				</g>
																			</g>
																		</g>
																	</g>
																</g>
															</g>
														</g>
													</g>
												</g>
											</g>
										</g>
									</g>
								</g>
							</g>
						</g>
					</g>
					<g>
						<path style="fill:#263238;" d="M355.848,194.381c-19.351-39.424-48.377-65.632-100.255-67.51l41.165,100.311
							c19.364,28.112,19.347,62.2,9.132,94.771c-2.86,9.118-6.717,19.665-1.362,27.579c5.382,7.954,17.758,8.123,25.841,2.936
							c7.308-4.689,11.939-12.392,16.069-20.106c-0.502,2.68,1.118,5.909,3.788,6.986c3.585,1.445,7.838-0.295,10.391-3.198
							c2.553-2.903,3.75-6.73,4.72-10.472c3.404-13.135,4.822-26.71,5.47-40.263C372.291,254.365,369.545,222.285,355.848,194.381z"
							/>
						<g>
							<g>
								<g>
									<g>
										<g>
											<g>
												<g>
													<g>
														<g>
															<g>
																<g>
																	<g>
																		<g>
																			<g>
																				<g>
																					<g>
																						<path style="fill:#AE7461;" d="M307.477,252.996c-0.169-3.223,3.139-11.027,6.295-11.698
																							c8.427-1.791,23.785-1.95,25.113,19.628c1.814,29.497-28.176,25.234-28.28,24.392
																							C310.524,284.659,308.061,264.126,307.477,252.996z"/>
																					</g>
																				</g>
																			</g>
																		</g>
																	</g>
																</g>
															</g>
														</g>
													</g>
												</g>
											</g>
										</g>
									</g>
								</g>
							</g>
						</g>
						<g>
							<g>
								<g>
									<g>
										<g>
											<g>
												<g>
													<g>
														<g>
															<g>
																<g>
																	<g>
																		<g>
																			<g>
																				<g>
																					<g>
																						<g>
																							<path style="fill:#6F4439;" d="M318.08,274.042c0.123-0.103,0.536,0.328,1.428,0.673
																								c0.872,0.335,2.345,0.514,3.848-0.157c3.046-1.335,5.365-6.444,5.18-11.77
																								c-0.09-2.69-0.808-5.211-1.889-7.27c-1.034-2.102-2.522-3.524-4.108-3.705
																								c-1.583-0.266-2.635,0.742-2.947,1.592c-0.345,0.85-0.12,1.429-0.273,1.487
																								c-0.078,0.08-0.664-0.454-0.501-1.686c0.086-0.595,0.388-1.312,1.048-1.922
																								c0.672-0.618,1.694-0.976,2.795-0.925c2.285,0.019,4.46,1.985,5.649,4.244
																								c1.313,2.262,2.186,5.092,2.286,8.112c0.177,5.956-2.523,11.704-6.713,13.2
																								c-2.041,0.667-3.811,0.149-4.748-0.493C318.176,274.753,317.981,274.101,318.08,274.042z"/>
																						</g>
																					</g>
																				</g>
																			</g>
																		</g>
																	</g>
																</g>
															</g>
														</g>
													</g>
												</g>
											</g>
										</g>
									</g>
								</g>
							</g>
						</g>
					</g>
				</g>
				<g>
					<g>
						<path style="fill:#263238;" d="M314.976,241.382l-7.505,8.973c-70.687-42.659-95.604-109.741-92.073-105.12
							c0,0,22.171-9.119,46.237-5.019c24.065,4.099,69.71,16.144,69.01,44.527C329.943,213.126,314.976,241.382,314.976,241.382z"/>
					</g>
				</g>
				<g>
					<path style="fill:#6F4439;" d="M220.606,282.332c-0.948,0.446-1.466,3.697-1.152,4.993c0.314,1.296,1.217,2.207,2.182,2.579
						c0.965,0.371,1.992,0.281,2.988,0.113c2.432-0.41,4.812-1.262,7.159-2.226c2.44-1.002,5.893-3.288,8.271-4.534
						c-3.832-1.938-8.763-2.735-12.836-3.205c-1.427-0.165-2.922-0.128-4.21,0.725"/>
					<path style="fill:#6F4439;" d="M221.577,282.091c-1.105-0.63-1.505-2.143-1.086-3.344c0.419-1.201,1.5-2.082,2.687-2.537
						c1.188-0.454,2.483-0.536,3.754-0.553c2.979-0.042,5.201,0.858,7.962,1.979s5.62,3.086,7.257,5.266
						C235.17,282.31,228.748,280.786,221.577,282.091"/>
					<g>
						<path style="fill:#263238;" d="M220.049,288.95c-0.061,0.064-0.531-0.202-0.952-1.043c-0.406-0.825-0.662-2.26-0.086-3.868
							c0.586-1.711,2.395-3.051,4.482-3.627c2.114-0.599,4.485-0.518,6.832-0.27c4.735,0.49,8.895,1.585,11.84,2.499
							c2.947,0.926,4.707,1.674,4.648,1.875c-0.062,0.213-1.935-0.161-4.928-0.806c-2.994-0.635-7.117-1.538-11.719-2.013
							c-2.297-0.246-4.471-0.34-6.306,0.108c-1.819,0.431-3.293,1.439-3.826,2.651c-0.592,1.267-0.552,2.481-0.366,3.244
							C219.86,288.476,220.143,288.872,220.049,288.95z"/>
					</g>
					<g>
						<path style="fill:#6F4439;" d="M244.934,303.701c-0.133,0.117-1.132-1.089-3.17-2.455c-2.007-1.366-5.2-2.793-8.913-2.881
							c-3.714-0.079-6.968,1.204-9.035,2.478c-2.097,1.273-3.148,2.433-3.276,2.31c-0.088-0.064,0.781-1.427,2.872-2.926
							c2.052-1.493,5.48-2.989,9.462-2.904c3.98,0.094,7.338,1.742,9.32,3.325C244.217,302.24,245.025,303.642,244.934,303.701z"/>
					</g>
				</g>
			</g>
			<circle style="fill:#455A64;" cx="317.858" cy="290.031" r="10.387"/>
			<path style="fill:#455A64;" d="M218.054,134.156c-0.565,1.598,26.841-4.117,38.443,2.921
				c11.602,7.038,20.611,17.635,28.442,28.717c15.804,22.365,28.588,48.24,30.036,75.587c3.081-1.26,11.539-0.724,15.676,1.904
				c0,0,14.52-88.382-71.95-116.399C258.702,126.887,223.155,119.731,218.054,134.156z"/>
			<g>
				<path style="fill:#263238;" d="M225.542,128.587c-0.011-0.034,0.543-0.228,1.612-0.567c1.06-0.375,2.676-0.747,4.778-1.118
					c1.06-0.112,2.231-0.359,3.532-0.384c0.65-0.034,1.327-0.07,2.031-0.107c0.706,0.013,1.438,0.027,2.197,0.041
					c3.032,0.115,6.481,0.534,10.197,1.438c7.426,1.799,15.9,5.505,24.19,11.259c8.348,5.656,16.648,13.197,23.875,22.325
					c7.254,9.116,12.702,18.911,16.435,28.275c0.865,2.368,1.767,4.657,2.534,6.917c0.683,2.288,1.346,4.509,1.988,6.657
					c0.498,2.185,0.98,4.295,1.442,6.324c0.446,2.031,0.672,4.02,0.995,5.897c0.136,0.943,0.321,1.855,0.405,2.758
					c0.079,0.902,0.157,1.782,0.232,2.637c0.135,1.71,0.323,3.319,0.385,4.829c0.024,3.025,0.146,5.63,0.053,7.755
					c-0.137,2.102-0.244,3.744-0.319,4.889c-0.084,1.116-0.146,1.7-0.182,1.697c-0.036-0.003-0.044-0.592-0.028-1.71
					c0.029-1.143,0.07-2.783,0.123-4.882c0.03-2.118-0.15-4.71-0.229-7.716c-0.089-1.501-0.304-3.098-0.463-4.795
					c-0.087-0.848-0.176-1.721-0.268-2.616c-0.096-0.895-0.292-1.8-0.438-2.735c-0.345-1.86-0.59-3.832-1.054-5.844
					c-0.478-2.01-0.975-4.1-1.49-6.263c-0.652-2.127-1.327-4.326-2.022-6.591c-0.776-2.238-1.685-4.503-2.554-6.846
					c-3.751-9.267-9.176-18.958-16.363-27.99c-7.162-9.044-15.359-16.531-23.6-22.178c-8.179-5.741-16.52-9.47-23.828-11.337
					c-3.657-0.938-7.052-1.402-10.043-1.57c-0.749-0.029-1.472-0.056-2.168-0.083c-0.696,0.022-1.365,0.043-2.007,0.063
					c-1.288-0.005-2.448,0.21-3.501,0.29c-2.088,0.306-3.707,0.611-4.779,0.919C226.129,128.494,225.553,128.621,225.542,128.587z"
					/>
			</g>
		</g>
		<g>
			<g>
				<path style="fill:#AE7461;" d="M225.871,467.388c0,0,7.686-29.894,10.756-42.192c0.73-2.924,0.871-5.955,0.42-8.935
					l-0.812-5.366c3.144-0.551,4.462-1.169,7.349-3.615v0c0,0,3.324,0.608,5.083-2.801c1.247-2.415,2.787-6.522,4.288-10.335
					c2.74-6.961,3.706-16.729,3.706-16.729s4.706-8.783,4.43-12.515c-0.276-3.732-2.921-9.843-2.921-9.843s0.669-5.964-0.449-8.447
					c-1.707-3.791-6.091-5.782-10.638-4.515c-3.882,1.082-22.916,4.924-22.916,4.924l-3.548-3.703l-0.914-13.255l10.745-3.722
					c0,0,6.992,3.077,12.107,1.142c2.316-0.876,3.704-2.161,4.531-3.306c0.883-1.223,0.423-2.947-0.928-3.619
					c-4.466-2.221-14.756-7.189-18.076-7.511c-4.285-0.415-20.819,7.543-22.156,9.968c-0.275,0.499-2.309,29.701-2.309,29.701
					s-4.423,4.7-4.423,11.196c0,6.496-1.659,55.012-1.659,55.012l-24.339,48.45"/>
				<g>
					<path style="fill:#6F4439;" d="M173.196,467.374c0,0,0.128-0.293,0.402-0.855c0.281-0.571,0.689-1.403,1.225-2.492
						c1.093-2.199,2.698-5.429,4.771-9.6c4.177-8.358,10.236-20.479,17.785-35.581l-0.018,0.072
						c0.27-9.313,0.572-19.695,0.899-30.968c0.165-5.637,0.337-11.497,0.515-17.557c0.045-1.515,0.09-3.043,0.135-4.582
						c0.066-1.527,0.017-3.118,0.327-4.683c0.601-3.124,2.065-6.089,4.209-8.573l-0.064,0.146
						c0.472-6.544,0.958-13.292,1.457-20.217c0.137-1.731,0.274-3.473,0.412-5.226c0.076-0.877,0.153-1.756,0.23-2.638
						c0.045-0.451,0.081-0.863,0.149-1.352c0.028-0.131,0.044-0.274,0.092-0.391l0.231-0.288c0.15-0.206,0.32-0.366,0.499-0.504
						c1.405-1.175,2.975-2.049,4.55-2.936c1.581-0.874,3.214-1.666,4.863-2.444c3.326-1.487,6.714-2.979,10.406-3.758
						c0.911-0.198,1.948-0.214,2.864,0.036c0.928,0.215,1.813,0.533,2.702,0.845c1.766,0.65,3.502,1.385,5.233,2.148
						c1.73,0.765,3.452,1.564,5.171,2.384l2.577,1.247l1.288,0.635c0.445,0.2,0.911,0.538,1.201,0.976
						c0.616,0.861,0.672,2.11,0.063,3.003c-0.571,0.835-1.288,1.527-2.092,2.112c-0.804,0.582-1.694,1.035-2.616,1.389
						c-0.943,0.324-1.921,0.549-2.912,0.615c-1.626,0.135-3.245-0.053-4.816-0.364c-1.575-0.32-3.101-0.78-4.587-1.393l0.19,0.008
						c-3.611,1.25-7.193,2.491-10.745,3.721l0.173-0.262c0.307,4.465,0.611,8.885,0.912,13.255l-0.071-0.16
						c1.188,1.241,2.371,2.475,3.548,3.704l-0.235-0.074c7.624-1.567,15.116-3.047,22.332-4.765
						c1.781-0.547,3.755-0.717,5.589-0.279c1.833,0.439,3.521,1.451,4.716,2.887c0.601,0.719,1.07,1.52,1.384,2.416
						c0.273,0.897,0.369,1.806,0.428,2.707c0.102,1.805,0.015,3.583-0.158,5.349l-0.018-0.121c0.798,1.904,1.503,3.817,2.076,5.762
						c0.283,0.973,0.532,1.953,0.702,2.949c0.191,0.983,0.21,2.051,0.008,3.036c-0.39,1.974-1.101,3.815-1.848,5.606
						c-0.755,1.79-1.586,3.519-2.469,5.205l0.025-0.083c-0.448,3.968-1.122,7.804-2.058,11.484
						c-0.89,3.707-2.408,7.097-3.695,10.428c-0.67,1.662-1.336,3.299-2.111,4.869c-0.385,0.785-0.886,1.559-1.575,2.125
						c-0.677,0.582-1.517,0.946-2.378,1.093c-0.431,0.075-0.867,0.093-1.303,0.055l-0.165-0.019l-0.045-0.007
						c0.31-0.084,0.082-0.02,0.149-0.037l-0.007,0.006l-0.015,0.013l-0.06,0.05l-0.241,0.201l-0.485,0.396
						c-0.651,0.52-1.316,1.021-2.028,1.445c-1.424,0.876-3.048,1.267-4.598,1.53l0.147-0.204c0.321,2.233,0.688,4.387,0.948,6.529
						c0.212,2.146,0.112,4.262-0.244,6.268c-0.385,2.009-0.956,3.88-1.405,5.734c-0.474,1.845-0.932,3.63-1.376,5.355
						c-1.776,6.896-3.301,12.823-4.548,17.664c-1.252,4.827-2.222,8.568-2.883,11.115c-0.332,1.259-0.586,2.22-0.76,2.879
						c-0.174,0.647-0.275,0.975-0.275,0.975s0.068-0.337,0.225-0.988c0.163-0.662,0.4-1.628,0.711-2.892
						c0.639-2.553,1.579-6.302,2.79-11.139c1.223-4.846,2.721-10.78,4.464-17.684c0.437-1.727,0.889-3.514,1.356-5.36
						c0.44-1.848,1.011-3.747,1.381-5.717c0.344-1.98,0.437-4.064,0.222-6.178c-0.262-2.106-0.638-4.285-0.964-6.509l-0.025-0.174
						l0.172-0.03c1.543-0.267,3.1-0.648,4.469-1.495c0.688-0.412,1.34-0.904,1.982-1.42l0.479-0.393l0.238-0.2l0.06-0.05
						l0.015-0.013l0.007-0.006c0.073-0.02-0.152,0.036,0.165-0.047l0.032,0.005l0.146,0.016c0.396,0.034,0.806,0.016,1.204-0.054
						c1.636-0.24,2.974-1.46,3.663-3.016c0.761-1.55,1.422-3.185,2.087-4.844c1.283-3.343,2.785-6.714,3.658-10.384
						c0.923-3.654,1.59-7.485,2.028-11.422l0.005-0.044l0.02-0.039c0.871-1.669,1.698-3.395,2.443-5.171
						c0.738-1.775,1.439-3.606,1.811-5.513c0.191-0.956,0.173-1.898-0.013-2.875c-0.166-0.969-0.413-1.934-0.693-2.894
						c-0.567-1.918-1.273-3.826-2.063-5.705l-0.024-0.058l0.006-0.064c0.168-1.733,0.253-3.506,0.151-5.267
						c-0.058-0.877-0.157-1.763-0.409-2.589c-0.28-0.798-0.733-1.585-1.297-2.251c-1.126-1.351-2.718-2.304-4.454-2.72
						c-1.753-0.409-3.581-0.261-5.351,0.281c-7.251,1.733-14.724,3.213-22.356,4.785l-0.137,0.028l-0.098-0.102
						c-1.177-1.228-2.36-2.462-3.549-3.702l-0.065-0.067l-0.006-0.093c-0.302-4.37-0.608-8.79-0.916-13.255l-0.014-0.198
						l0.187-0.065c3.552-1.231,7.134-2.472,10.744-3.723l0.091-0.032l0.099,0.039c2.87,1.143,6.026,1.922,9.153,1.714
						c0.952-0.062,1.878-0.279,2.768-0.582c0.886-0.34,1.734-0.773,2.496-1.324c0.757-0.548,1.445-1.22,1.961-1.974
						c0.49-0.715,0.445-1.721-0.054-2.422c-0.248-0.363-0.58-0.612-1.005-0.808l-1.285-0.634l-2.572-1.245
						c-1.716-0.819-3.434-1.617-5.157-2.379c-1.724-0.761-3.453-1.493-5.2-2.136c-1.754-0.606-3.52-1.312-5.299-0.86
						c-3.58,0.752-6.984,2.238-10.282,3.713c-1.64,0.773-3.265,1.56-4.834,2.426c-1.556,0.872-3.131,1.757-4.458,2.867
						c-0.175,0.134-0.326,0.279-0.437,0.437l-0.191,0.227c-0.029,0.083-0.022,0.172-0.04,0.256c-0.051,0.389-0.098,0.86-0.14,1.289
						c-0.077,0.88-0.154,1.757-0.231,2.632c-0.139,1.752-0.278,3.493-0.416,5.222c-0.506,6.924-0.999,13.671-1.478,20.213
						l-0.006,0.079l-0.058,0.067c-2.065,2.386-3.52,5.311-4.1,8.334c-0.302,1.514-0.257,3.051-0.325,4.598
						c-0.048,1.54-0.095,3.068-0.141,4.584c-0.188,6.062-0.369,11.923-0.544,17.562c-0.353,11.276-0.678,21.66-0.969,30.974
						l-0.001,0.038l-0.017,0.035c-7.609,15.072-13.716,27.169-17.927,35.509c-2.109,4.154-3.742,7.369-4.854,9.559
						c-0.554,1.08-0.978,1.905-1.268,2.471C173.355,467.096,173.196,467.374,173.196,467.374z"/>
				</g>
			</g>
			<g>
				<path style="fill:#6F4439;" d="M236.066,410.898c-0.022-0.08,1.313-0.102,3.41-1.067c1.034-0.497,2.219-1.283,3.366-2.449
					c1.159-1.152,2.29-2.647,3.48-4.338c2.404-3.367,4.27-7.962,6.095-13.121c0.914-2.564,1.883-5.312,1.954-8.252
					c0.034-1.46-0.227-2.949-0.873-4.3c-0.657-1.343-1.7-2.504-2.968-3.389c-2.56-1.781-5.628-2.51-8.557-2.82
					c-2.948-0.327-5.847-0.387-8.569-0.92c-2.745-0.49-5.145-1.646-7.37-2.603c-2.223-0.975-4.369-1.731-6.412-1.915
					c-1.016-0.096-1.994-0.049-2.892,0.134c-0.894,0.191-1.716,0.507-2.467,0.826c-1.501,0.65-2.712,1.391-3.625,2.088
					c-0.91,0.704-1.488,1.4-1.772,1.929c-0.139,0.267-0.224,0.48-0.252,0.634c-0.042,0.149-0.069,0.226-0.078,0.225
					c-0.009-0.001,0-0.08,0.026-0.237c0.012-0.161,0.081-0.385,0.21-0.669c0.262-0.562,0.833-1.3,1.739-2.041
					c0.91-0.734,2.122-1.51,3.634-2.196c0.758-0.336,1.585-0.67,2.516-0.883c0.93-0.204,1.944-0.264,2.993-0.177
					c2.106,0.166,4.309,0.922,6.549,1.885c2.248,0.948,4.608,2.065,7.29,2.529c2.672,0.511,5.554,0.562,8.536,0.885
					c2.967,0.308,6.128,1.042,8.801,2.901c1.326,0.925,2.436,2.156,3.134,3.589c0.687,1.438,0.956,3.016,0.917,4.535
					c-0.084,3.059-1.086,5.836-2.014,8.407c-1.85,5.151-3.77,9.784-6.245,13.17c-1.214,1.685-2.376,3.179-3.576,4.332
					c-1.187,1.167-2.418,1.948-3.485,2.425c-1.07,0.481-1.967,0.664-2.566,0.784c-0.278,0.035-0.505,0.064-0.692,0.088
					C236.148,410.903,236.068,410.907,236.066,410.898z"/>
			</g>
			<g>
				<path style="fill:#6F4439;" d="M236.6,413.382c-0.081,0.017-0.39-1.283-0.948-3.364c-0.554-2.082-1.386-4.939-2.447-8.049
					c-1.064-3.11-2.147-5.884-2.924-7.897c-0.781-2.012-1.236-3.27-1.169-3.297c0.065-0.027,0.64,1.179,1.509,3.157
					c0.865,1.979,2.007,4.743,3.077,7.869c1.067,3.125,1.848,6.016,2.312,8.129c0.23,1.057,0.401,1.916,0.492,2.514
					C236.598,413.042,236.635,413.375,236.6,413.382z"/>
			</g>
			<g>
				<path style="fill:#6F4439;" d="M228.25,390.942c0.007-0.03,0.179,0.055,0.471-0.043c0.302-0.085,0.612-0.423,0.873-0.968
					c0.277-0.532,0.589-1.197,0.797-1.999c0.205-0.796,0.288-1.753-0.018-2.704l-0.141-0.439l0.431,0.171
					c2.206,0.876,4.942,1.685,7.908,2.488c0.295,0.081,0.587,0.161,0.877,0.241l0.413,0.113l-0.291,0.315
					c-1.253,1.355-1.573,3.31-1.111,4.806l0.061,0.199l-0.188,0.087c-2.361,1.093-3.753,2.971-4.426,4.343
					c-0.687,1.399-0.791,2.33-0.865,2.312c-0.023-0.003-0.014-0.234,0.056-0.659c0.077-0.423,0.232-1.038,0.551-1.774
					c0.62-1.448,2.007-3.457,4.485-4.652l-0.126,0.285c-0.533-1.647-0.208-3.785,1.182-5.301l0.122,0.427
					c-0.29-0.079-0.583-0.159-0.878-0.24c-2.968-0.803-5.724-1.65-7.934-2.585l0.29-0.268c0.317,1.068,0.189,2.102-0.056,2.929
					c-0.249,0.836-0.604,1.504-0.919,2.029c-0.29,0.534-0.7,0.925-1.058,0.972C228.404,391.093,228.236,390.951,228.25,390.942z"/>
			</g>
			<g>
				<path style="fill:#6F4439;" d="M205.307,361.539c-0.013-0.013,0.149-0.186,0.471-0.507c0.335-0.305,0.854-0.741,1.612-1.161
					c1.496-0.882,3.964-1.591,7.037-1.792c6.14-0.305,14.598-0.492,23.952-0.763c2.341-0.047,4.614-0.159,6.84-0.133
					c2.211,0.04,4.426,0.349,6.27,1.356c1.843,1.001,3.158,2.582,4.02,4.189c0.867,1.619,1.32,3.289,1.528,4.822
					c0.403,3.082,0.047,5.582-0.152,7.278c-0.114,0.851-0.219,1.509-0.295,1.954c-0.077,0.445-0.126,0.678-0.144,0.675
					c-0.018-0.002-0.004-0.24,0.04-0.689c0.05-0.501,0.116-1.153,0.197-1.963c0.138-1.697,0.431-4.19-0.011-7.202
					c-0.226-1.495-0.689-3.114-1.543-4.669c-0.849-1.544-2.121-3.039-3.867-3.972c-1.748-0.941-3.876-1.236-6.053-1.268
					c-2.187-0.019-4.479,0.096-6.816,0.144c-9.347,0.271-17.829,0.401-23.94,0.61c-3.049,0.154-5.47,0.794-6.966,1.603
					C205.97,360.83,205.354,361.597,205.307,361.539z"/>
			</g>
			<g>
				<path style="fill:#6F4439;" d="M241.815,343.285c-0.004-0.036,0.31-0.086,0.886-0.146c0.575-0.087,1.418-0.069,2.453,0.029
					c2.059,0.232,4.895,1.239,7.31,3.336c2.432,2.067,4.018,4.527,4.93,6.374c0.24,0.459,0.429,0.886,0.581,1.268
					c0.161,0.378,0.291,0.706,0.374,0.983c0.18,0.549,0.262,0.857,0.228,0.869c-0.086,0.032-0.52-1.166-1.509-2.948
					c-0.981-1.775-2.58-4.143-4.94-6.148c-2.345-2.033-5.036-3.048-7.026-3.369C243.098,343.224,241.822,343.401,241.815,343.285z"
					/>
			</g>
			<g>
				<path style="fill:#6F4439;" d="M203.617,352.668c-0.023-0.027,0.216-0.255,0.673-0.647c0.447-0.403,1.161-0.909,2.093-1.451
					c0.928-0.553,2.117-1.058,3.469-1.513c1.363-0.42,2.896-0.752,4.514-0.998c3.24-0.47,6.173-0.695,8.279-1.009
					c2.107-0.297,3.397-0.572,3.417-0.488c0.008,0.035-0.306,0.139-0.883,0.298c-0.576,0.169-1.423,0.351-2.475,0.553
					c-2.104,0.409-5.052,0.695-8.259,1.16c-1.602,0.244-3.109,0.556-4.451,0.942c-1.329,0.42-2.504,0.877-3.434,1.378
					C204.687,351.876,203.683,352.753,203.617,352.668z"/>
			</g>
		</g>
	</g>
</g>
</svg>
